<svg width="155" height="69" viewBox="0 0 155 69" fill="none" xmlns="http://www.w3.org/2000/svg">
<path d="M4.44034 66.3641C4.73012 66.3641 4.98331 66.2763 5.19991 66.1007C5.41651 65.9251 5.53651 65.7055 5.55993 65.4421H6.32828C6.31364 65.7143 6.21998 65.9733 6.04728 66.2192C5.87459 66.4651 5.64335 66.6612 5.35357 66.8076C5.06673 66.9539 4.76231 67.0271 4.44034 67.0271C3.79347 67.0271 3.27831 66.8119 2.89487 66.3817C2.51435 65.9485 2.3241 65.3572 2.3241 64.6079V64.4718C2.3241 64.0093 2.40898 63.5981 2.57875 63.238C2.74852 62.878 2.99146 62.5985 3.30758 62.3994C3.62663 62.2004 4.00275 62.1009 4.43595 62.1009C4.96867 62.1009 5.41065 62.2604 5.7619 62.5795C6.11607 62.8985 6.30486 63.3127 6.32828 63.822H5.55993C5.53651 63.5146 5.41943 63.2629 5.20869 63.0668C5.00087 62.8678 4.74329 62.7682 4.43595 62.7682C4.02324 62.7682 3.70273 62.9175 3.47442 63.2161C3.24904 63.5117 3.13635 63.9405 3.13635 64.5025V64.6562C3.13635 65.2035 3.24904 65.625 3.47442 65.9207C3.6998 66.2163 4.02178 66.3641 4.44034 66.3641Z" fill="#FEC901"/>
<path d="M8.5736 66.9393H7.76135V60.1954H8.5736V66.9393Z" fill="#FEC901"/>
<path d="M12.2985 67.0271C11.6546 67.0271 11.1307 66.8163 10.7267 66.3948C10.3228 65.9704 10.1208 65.404 10.1208 64.6957V64.5464C10.1208 64.0752 10.2101 63.6551 10.3887 63.2863C10.5701 62.9146 10.8219 62.6248 11.1438 62.417C11.4687 62.2063 11.82 62.1009 12.1976 62.1009C12.8152 62.1009 13.2952 62.3043 13.6377 62.7112C13.9801 63.118 14.1514 63.7005 14.1514 64.4586V64.7967H10.9331C10.9448 65.265 11.0809 65.6441 11.3414 65.9338C11.6048 66.2207 11.9385 66.3641 12.3424 66.3641C12.6293 66.3641 12.8722 66.3056 13.0713 66.1885C13.2703 66.0714 13.4445 65.9163 13.5938 65.7231L14.0899 66.1095C13.6918 66.7212 13.0947 67.0271 12.2985 67.0271ZM12.1976 62.7682C11.8697 62.7682 11.5946 62.8883 11.3721 63.1283C11.1497 63.3654 11.0121 63.699 10.9594 64.1293H13.3391V64.0679C13.3157 63.6551 13.2045 63.3361 13.0054 63.1107C12.8064 62.8824 12.5371 62.7682 12.1976 62.7682Z" fill="#FEC901"/>
<path d="M18.4778 66.9393C18.431 66.8456 18.3929 66.6788 18.3636 66.4387C17.9861 66.831 17.5353 67.0271 17.0114 67.0271C16.543 67.0271 16.1581 66.8954 15.8566 66.6319C15.5581 66.3656 15.4088 66.029 15.4088 65.6221C15.4088 65.1274 15.5961 64.744 15.9708 64.4718C16.3484 64.1966 16.8782 64.0591 17.5602 64.0591H18.3505V63.6859C18.3505 63.402 18.2656 63.1766 18.0958 63.0097C17.9261 62.84 17.6758 62.7551 17.345 62.7551C17.0553 62.7551 16.8123 62.8283 16.6162 62.9746C16.4201 63.121 16.322 63.298 16.322 63.5059H15.5054C15.5054 63.2688 15.5888 63.0405 15.7557 62.8209C15.9254 62.5985 16.1537 62.4229 16.4406 62.2941C16.7304 62.1653 17.0479 62.1009 17.3933 62.1009C17.9407 62.1009 18.3695 62.2385 18.6798 62.5136C18.99 62.7858 19.151 63.1619 19.1627 63.642V65.8285C19.1627 66.2646 19.2183 66.6114 19.3296 66.869V66.9393H18.4778ZM17.1299 66.3202C17.3846 66.3202 17.626 66.2543 17.8543 66.1226C18.0827 65.9909 18.248 65.8197 18.3505 65.6089V64.6342H17.7138C16.7187 64.6342 16.2211 64.9255 16.2211 65.508C16.2211 65.7626 16.3059 65.9616 16.4757 66.1051C16.6455 66.2485 16.8635 66.3202 17.1299 66.3202Z" fill="#FEC901"/>
<path d="M21.6539 62.1887L21.6803 62.7858C22.0432 62.3292 22.5174 62.1009 23.1028 62.1009C24.1068 62.1009 24.6132 62.6673 24.6219 63.8V66.9393H23.8097V63.7956C23.8068 63.4532 23.7277 63.2 23.5726 63.0361C23.4204 62.8722 23.1818 62.7902 22.8569 62.7902C22.5935 62.7902 22.3623 62.8605 22.1632 63.0009C21.9642 63.1414 21.8091 63.3258 21.6978 63.5542V66.9393H20.8856V62.1887H21.6539Z" fill="#FEC901"/>
<path d="M27.179 66.9393H26.3667V62.1887H27.179V66.9393ZM26.3009 60.9286C26.3009 60.7969 26.3404 60.6857 26.4194 60.5949C26.5014 60.5042 26.6214 60.4588 26.7794 60.4588C26.9375 60.4588 27.0575 60.5042 27.1395 60.5949C27.2214 60.6857 27.2624 60.7969 27.2624 60.9286C27.2624 61.0603 27.2214 61.1701 27.1395 61.2579C27.0575 61.3457 26.9375 61.3896 26.7794 61.3896C26.6214 61.3896 26.5014 61.3457 26.4194 61.2579C26.3404 61.1701 26.3009 61.0603 26.3009 60.9286Z" fill="#FEC901"/>
<path d="M29.7009 62.1887L29.7273 62.7858C30.0902 62.3292 30.5644 62.1009 31.1498 62.1009C32.1538 62.1009 32.6602 62.6673 32.6689 63.8V66.9393H31.8567V63.7956C31.8538 63.4532 31.7747 63.2 31.6196 63.0361C31.4674 62.8722 31.2288 62.7902 30.9039 62.7902C30.6405 62.7902 30.4093 62.8605 30.2102 63.0009C30.0112 63.1414 29.8561 63.3258 29.7448 63.5542V66.9393H28.9326V62.1887H29.7009Z" fill="#FEC901"/>
<path d="M34.1503 64.5245C34.1503 63.7839 34.3215 63.1956 34.664 62.7595C35.0065 62.3204 35.4601 62.1009 36.0251 62.1009C36.6046 62.1009 37.0568 62.3058 37.3817 62.7156L37.4213 62.1887H38.1633V66.8251C38.1633 67.4398 37.9803 67.9242 37.6144 68.2784C37.2515 68.6326 36.7627 68.8096 36.148 68.8096C35.8055 68.8096 35.4704 68.7365 35.1426 68.5901C34.8147 68.4438 34.5645 68.2433 34.3918 67.9886L34.8133 67.5013C35.1616 67.9315 35.5875 68.1467 36.0909 68.1467C36.4861 68.1467 36.7934 68.0354 37.0129 67.813C37.2354 67.5905 37.3466 67.2773 37.3466 66.8734V66.4651C37.0217 66.8398 36.5783 67.0271 36.0163 67.0271C35.4601 67.0271 35.0094 66.8032 34.664 66.3553C34.3215 65.9075 34.1503 65.2972 34.1503 64.5245ZM34.9669 64.6167C34.9669 65.1523 35.0767 65.5738 35.2962 65.8811C35.5158 66.1856 35.8231 66.3378 36.2183 66.3378C36.7305 66.3378 37.1066 66.1051 37.3466 65.6397V63.4707C37.0978 63.017 36.7246 62.7902 36.227 62.7902C35.8319 62.7902 35.5231 62.9439 35.3006 63.2512C35.0782 63.5585 34.9669 64.0137 34.9669 64.6167Z" fill="#FEC901"/>
<path d="M44.4277 66.3641C44.7175 66.3641 44.9707 66.2763 45.1873 66.1007C45.4039 65.9251 45.5239 65.7055 45.5473 65.4421H46.3156C46.301 65.7143 46.2073 65.9733 46.0346 66.2192C45.8619 66.4651 45.6307 66.6612 45.3409 66.8076C45.0541 66.9539 44.7497 67.0271 44.4277 67.0271C43.7808 67.0271 43.2657 66.8119 42.8822 66.3817C42.5017 65.9485 42.3115 65.3572 42.3115 64.6079V64.4718C42.3115 64.0093 42.3963 63.5981 42.5661 63.238C42.7359 62.878 42.9788 62.5985 43.2949 62.3994C43.614 62.2004 43.9901 62.1009 44.4233 62.1009C44.956 62.1009 45.398 62.2604 45.7492 62.5795C46.1034 62.8985 46.2922 63.3127 46.3156 63.822H45.5473C45.5239 63.5146 45.4068 63.2629 45.196 63.0668C44.9882 62.8678 44.7306 62.7682 44.4233 62.7682C44.0106 62.7682 43.6901 62.9175 43.4618 63.2161C43.2364 63.5117 43.1237 63.9405 43.1237 64.5025V64.6562C43.1237 65.2035 43.2364 65.625 43.4618 65.9207C43.6872 66.2163 44.0091 66.3641 44.4277 66.3641Z" fill="#FEC901"/>
<path d="M47.4633 64.5201C47.4633 64.0547 47.5541 63.6361 47.7355 63.2644C47.9199 62.8926 48.1746 62.6058 48.4995 62.4038C48.8273 62.2019 49.2005 62.1009 49.6191 62.1009C50.266 62.1009 50.7884 62.3248 51.1865 62.7726C51.5875 63.2205 51.788 63.8161 51.788 64.5596V64.6167C51.788 65.0791 51.6987 65.4948 51.5202 65.8636C51.3446 66.2295 51.0914 66.5149 50.7606 66.7197C50.4328 66.9246 50.0552 67.0271 49.6279 67.0271C48.9839 67.0271 48.4614 66.8032 48.0604 66.3553C47.6624 65.9075 47.4633 65.3148 47.4633 64.5772V64.5201ZM48.28 64.6167C48.28 65.1435 48.4014 65.5665 48.6444 65.8855C48.8902 66.2046 49.2181 66.3641 49.6279 66.3641C50.0406 66.3641 50.3684 66.2031 50.6113 65.8811C50.8543 65.5562 50.9758 65.1026 50.9758 64.5201C50.9758 63.9991 50.8514 63.5776 50.6026 63.2556C50.3567 62.9307 50.0289 62.7682 49.6191 62.7682C49.2181 62.7682 48.8946 62.9278 48.6488 63.2468C48.4029 63.5659 48.28 64.0225 48.28 64.6167Z" fill="#FEC901"/>
<path d="M54.0202 62.1887L54.0421 62.7156C54.3904 62.3058 54.8602 62.1009 55.4515 62.1009C56.1159 62.1009 56.5681 62.3555 56.8082 62.8648C56.9662 62.6365 57.1711 62.4521 57.4228 62.3116C57.6775 62.1711 57.9775 62.1009 58.3229 62.1009C59.3649 62.1009 59.8947 62.6526 59.9123 63.7561V66.9393H59.1V63.8044C59.1 63.4649 59.0225 63.2117 58.8673 63.0449C58.7122 62.8751 58.4517 62.7902 58.0858 62.7902C57.7843 62.7902 57.5341 62.8809 57.335 63.0624C57.136 63.241 57.0204 63.4824 56.9882 63.7869V66.9393H56.1715V63.8264C56.1715 63.1356 55.8335 62.7902 55.1573 62.7902C54.6246 62.7902 54.2602 63.017 54.0641 63.4707V66.9393H53.2518V62.1887H54.0202Z" fill="#FEC901"/>
<path d="M65.6042 64.6167C65.6042 65.3396 65.4388 65.9221 65.1081 66.3641C64.7773 66.8061 64.3295 67.0271 63.7645 67.0271C63.1879 67.0271 62.7342 66.8441 62.4035 66.4783V68.7657H61.5912V62.1887H62.3332L62.3727 62.7156C62.7035 62.3058 63.163 62.1009 63.7514 62.1009C64.3221 62.1009 64.7729 62.316 65.1037 62.7463C65.4373 63.1766 65.6042 63.7751 65.6042 64.542V64.6167ZM64.7919 64.5245C64.7919 63.9888 64.6778 63.5659 64.4495 63.2556C64.2212 62.9453 63.908 62.7902 63.5099 62.7902C63.0182 62.7902 62.6493 63.0083 62.4035 63.4444V65.7143C62.6464 66.1475 63.0182 66.3641 63.5187 66.3641C63.908 66.3641 64.2168 66.2104 64.4451 65.9031C64.6763 65.5928 64.7919 65.1333 64.7919 64.5245Z" fill="#FEC901"/>
<path d="M70.0228 66.9393C69.976 66.8456 69.938 66.6788 69.9087 66.4387C69.5311 66.831 69.0803 67.0271 68.5564 67.0271C68.0881 67.0271 67.7032 66.8954 67.4017 66.6319C67.1031 66.3656 66.9538 66.029 66.9538 65.6221C66.9538 65.1274 67.1412 64.744 67.5158 64.4718C67.8934 64.1966 68.4232 64.0591 69.1052 64.0591H69.8955V63.6859C69.8955 63.402 69.8106 63.1766 69.6409 63.0097C69.4711 62.84 69.2208 62.7551 68.8901 62.7551C68.6003 62.7551 68.3574 62.8283 68.1612 62.9746C67.9651 63.121 67.8671 63.298 67.8671 63.5059H67.0504C67.0504 63.2688 67.1339 63.0405 67.3007 62.8209C67.4705 62.5985 67.6988 62.4229 67.9856 62.2941C68.2754 62.1653 68.593 62.1009 68.9384 62.1009C69.4857 62.1009 69.9145 62.2385 70.2248 62.5136C70.5351 62.7858 70.6961 63.1619 70.7078 63.642V65.8285C70.7078 66.2646 70.7634 66.6114 70.8746 66.869V66.9393H70.0228ZM68.6749 66.3202C68.9296 66.3202 69.1711 66.2543 69.3994 66.1226C69.6277 65.9909 69.7931 65.8197 69.8955 65.6089V64.6342H69.2589C68.2637 64.6342 67.7661 64.9255 67.7661 65.508C67.7661 65.7626 67.851 65.9616 68.0207 66.1051C68.1905 66.2485 68.4086 66.3202 68.6749 66.3202Z" fill="#FEC901"/>
<path d="M73.199 62.1887L73.2253 62.7858C73.5883 62.3292 74.0624 62.1009 74.6478 62.1009C75.6518 62.1009 76.1582 62.6673 76.167 63.8V66.9393H75.3547V63.7956C75.3518 63.4532 75.2728 63.2 75.1176 63.0361C74.9654 62.8722 74.7269 62.7902 74.402 62.7902C74.1385 62.7902 73.9073 62.8605 73.7083 63.0009C73.5092 63.1414 73.3541 63.3258 73.2429 63.5542V66.9393H72.4306V62.1887H73.199Z" fill="#FEC901"/>
<path d="M79.3958 65.7494L80.5022 62.1887H81.3715L79.4616 67.6725C79.166 68.4628 78.6962 68.8579 78.0523 68.8579L77.8986 68.8448L77.5956 68.7877V68.1291L77.8152 68.1467C78.0903 68.1467 78.304 68.0911 78.4562 67.9798C78.6113 67.8686 78.7387 67.6652 78.8382 67.3695L79.0182 66.8866L77.3234 62.1887H78.2103L79.3958 65.7494Z" fill="#FEC901"/>
<path d="M19.0296 47.254C18.9568 48.8359 18.5301 50.2357 17.7495 51.4533C16.969 52.6606 15.871 53.5972 14.4556 54.2633C13.0507 54.9293 11.4427 55.2624 9.63189 55.2624C6.64501 55.2624 4.29298 54.2893 2.57579 52.3431C0.858596 50.397 0 47.6495 0 44.1006V42.9766C0 40.7495 0.385067 38.8033 1.1552 37.1382C1.93574 35.4626 3.05452 34.1721 4.51153 33.2667C5.96854 32.3509 7.65451 31.8929 9.56944 31.8929C12.3274 31.8929 14.5441 32.6214 16.2197 34.0785C17.8952 35.5251 18.8475 37.5233 19.0764 40.073H13.6126C13.571 38.6889 13.2224 37.695 12.5667 37.0914C11.9111 36.4877 10.912 36.1859 9.56944 36.1859C8.2061 36.1859 7.207 36.6959 6.57216 37.7158C5.93732 38.7357 5.60429 40.3644 5.57307 42.602V44.2099C5.57307 46.6348 5.87488 48.3676 6.4785 49.4083C7.09252 50.449 8.14365 50.9694 9.63189 50.9694C10.8912 50.9694 11.8538 50.6728 12.5199 50.0796C13.186 49.4864 13.5398 48.5445 13.5814 47.254H19.0296Z" fill="white"/>
<path d="M26.9287 54.9502H21.6522V30.9719H26.9287V54.9502Z" fill="white"/>
<path d="M38.3558 55.2624C35.7644 55.2624 33.6674 54.4922 32.0647 52.952C30.4619 51.4013 29.6606 49.3875 29.6606 46.9106V46.4735C29.6606 44.7459 29.978 43.2212 30.6129 41.8995C31.2581 40.5778 32.1947 39.5579 33.4228 38.8398C34.6509 38.1113 36.1079 37.747 37.7938 37.747C40.1667 37.747 42.04 38.4859 43.4137 39.9637C44.7875 41.4312 45.4744 43.4814 45.4744 46.1144V48.1594H35.0151C35.2024 49.1065 35.6135 49.8506 36.2484 50.3918C36.8832 50.933 37.7054 51.2036 38.7149 51.2036C40.38 51.2036 41.6809 50.6207 42.6176 49.4551L45.0217 52.2963C44.366 53.2017 43.4346 53.925 42.2273 54.4662C41.0305 54.997 39.74 55.2624 38.3558 55.2624ZM37.7626 41.8058C36.2223 41.8058 35.3065 42.8257 35.0151 44.8656H40.3228V44.4597C40.3436 43.6167 40.1303 42.9662 39.6827 42.5083C39.2352 42.04 38.5952 41.8058 37.7626 41.8058Z" fill="white"/>
<path d="M57.1201 54.9502C56.9327 54.6067 56.7662 54.102 56.6205 53.4359C55.6526 54.6535 54.2997 55.2624 52.5617 55.2624C50.9694 55.2624 49.6164 54.7836 48.5029 53.8262C47.3893 52.8583 46.8325 51.6459 46.8325 50.1888C46.8325 48.3572 47.509 46.973 48.8619 46.0364C50.2149 45.0997 52.1818 44.6314 54.7628 44.6314H56.3863V43.7416C56.3863 42.1909 55.7151 41.4156 54.3725 41.4156C53.1237 41.4156 52.4992 42.0296 52.4992 43.2576H47.2384C47.2384 41.6237 47.9305 40.2968 49.3146 39.2769C50.7092 38.257 52.4836 37.747 54.6379 37.747C56.7922 37.747 58.4938 38.2726 59.7427 39.3237C60.9915 40.3748 61.6316 41.8162 61.6628 43.6479V51.1255C61.6836 52.6762 61.923 53.8626 62.3809 54.6848V54.9502H57.1201ZM53.8262 51.5158C54.4818 51.5158 55.023 51.3753 55.4497 51.0943C55.8868 50.8133 56.199 50.4959 56.3863 50.142V47.4413H54.8565C53.0248 47.4413 52.109 48.2635 52.109 49.9079C52.109 50.3866 52.2703 50.7769 52.5929 51.0787C52.9155 51.3701 53.3266 51.5158 53.8262 51.5158Z" fill="white"/>
<path d="M69.4214 38.0592L69.5931 40.0418C70.7587 38.5119 72.3666 37.747 74.4169 37.747C76.1757 37.747 77.487 38.2726 78.3508 39.3237C79.225 40.3748 79.6777 41.9567 79.7089 44.0694V54.9502H74.4325V44.2879C74.4325 43.4346 74.2607 42.8101 73.9173 42.4146C73.5739 42.0088 72.9494 41.8058 72.044 41.8058C71.0137 41.8058 70.2488 42.2117 69.7492 43.0235V54.9502H64.4884V38.0592H69.4214Z" fill="white"/>
<path d="M130.46 40.4945C127.868 40.4945 125.771 39.7244 124.169 38.1841C122.566 36.6334 121.765 34.6196 121.765 32.1427V31.7056C121.765 29.978 122.082 28.4534 122.717 27.1316C123.362 25.8099 124.299 24.79 125.527 24.0719C126.755 23.3434 128.212 22.9792 129.898 22.9792C132.271 22.9792 134.144 23.7181 135.518 25.1959C136.891 26.6633 137.578 28.7135 137.578 31.3466V33.3916H127.119C127.306 34.3386 127.717 35.0828 128.352 35.6239C128.987 36.1651 129.809 36.4357 130.819 36.4357C132.484 36.4357 133.785 35.8529 134.722 34.6873L137.126 37.5285C136.47 38.4339 135.538 39.1572 134.331 39.6984C133.134 40.2291 131.844 40.4945 130.46 40.4945ZM129.867 27.038C128.326 27.038 127.41 28.0579 127.119 30.0977H132.427V29.6918C132.448 28.8488 132.234 28.1984 131.787 27.7405C131.339 27.2721 130.699 27.038 129.867 27.038Z" fill="#FEC901"/>
<path d="M147.881 40.4945C145.29 40.4945 143.193 39.7244 141.59 38.1841C139.988 36.6334 139.186 34.6196 139.186 32.1427V31.7056C139.186 29.978 139.504 28.4534 140.138 27.1316C140.784 25.8099 141.72 24.79 142.948 24.0719C144.176 23.3434 145.633 22.9792 147.319 22.9792C149.692 22.9792 151.566 23.7181 152.939 25.1959C154.313 26.6633 155 28.7135 155 31.3466V33.3916H144.541C144.728 34.3386 145.139 35.0828 145.774 35.6239C146.409 36.1651 147.231 36.4357 148.241 36.4357C149.906 36.4357 151.207 35.8529 152.143 34.6873L154.547 37.5285C153.892 38.4339 152.96 39.1572 151.753 39.6984C150.556 40.2291 149.266 40.4945 147.881 40.4945ZM147.288 27.038C145.748 27.038 144.832 28.0579 144.541 30.0977H149.848V29.6918C149.869 28.8488 149.656 28.1984 149.208 27.7405C148.761 27.2721 148.121 27.038 147.288 27.038Z" fill="#FEC901"/>
<path d="M101.489 43.7103C104.487 44.7094 108.067 48.123 109.482 49.7049C110.481 44.9592 106.984 44.9592 105.486 42.4615C103.488 38.4651 106.818 37.6325 108.733 37.7158C107.817 36.6334 105.336 34.7685 102.738 35.9674C97.9925 38.2153 99.4912 42.7112 101.489 43.7103Z" fill="white"/>
<path d="M112.489 0.298636C94.592 -2.58414 88.3159 16.1139 87.415 25.8232C88.3159 16.6644 100.928 3.00124 108.886 6.15428C117.144 10.3424 98.6759 21.1687 99.1263 21.7693C113.841 25.5229 113.39 39.036 113.39 40.6876C124.2 31.2284 112.489 22.3699 103.931 21.0186C109.036 21.0186 124.651 3.90211 112.489 0.298636Z" fill="#FEC901"/>
<path fill-rule="evenodd" clip-rule="evenodd" d="M78.4159 11.8639C75.6695 8.26094 68.1133 1.98058 59.0279 4.74571C59.707 5.28898 61.3462 5.31527 63.3029 5.34666C64.9447 5.373 66.81 5.40293 68.5193 5.74479C71.8933 6.41958 75.9437 9.43998 77.2292 12.1695C77.0361 12.2417 76.8536 12.3215 76.6831 12.406C73.2616 9.18642 65.2157 4.44004 56.8702 8.24632C57.646 8.71374 58.956 8.56732 60.879 8.35241H60.879C62.3516 8.18782 64.1836 7.98307 66.4104 7.98307C69.7589 7.98307 74.0222 10.5197 75.7552 12.9964C73.7584 15.1683 71.3246 21.2396 77.5111 28.2244C77.4235 28.1234 77.5859 28.0604 77.8707 27.9498C78.5455 27.6879 79.9073 27.1592 80.2586 25.2271C80.2986 25.4671 80.3514 25.6942 80.4027 25.9147L80.4027 25.9147C80.6715 27.0713 80.8978 28.0448 79.0098 29.723C79.093 29.8895 79.3595 30.2725 79.7591 30.4723C79.7591 30.7221 80.2587 31.4714 80.7582 30.2226C80.8246 30.0566 80.9968 29.7232 81.2361 29.2596L81.2362 29.2595C82.7983 26.2342 87.2209 17.6693 83.7555 13.9873C81.9108 12.0273 79.9774 11.6361 78.4159 11.8639ZM108.483 50.9538C109.482 51.1536 109.732 51.037 109.732 50.9538C107.946 47.6199 105.081 46.8402 102.356 46.0983C99.3645 45.284 96.5405 44.5152 95.4948 40.4633C93.8963 34.2689 101.156 32.3873 104.986 32.2208C98.592 27.2253 92.6641 32.9701 90.4994 36.4669C86.7528 26.9755 95.245 26.7257 97.493 26.7257C95.245 25.2271 89.5002 24.228 85.2541 28.2244C81.0079 32.2208 84.0052 43.7103 92.2477 45.9583C107.311 49.5259 107.905 50.4198 108.132 50.7617C108.191 50.8506 108.225 50.9022 108.483 50.9538ZM78.7436 18.6017C78.3833 20.3939 77.1227 21.652 75.9279 21.4118C74.7331 21.1717 74.0566 19.5241 74.4168 17.7319C74.7771 15.9397 76.0378 14.6816 77.2325 14.9218C78.4273 15.1619 79.1038 16.8095 78.7436 18.6017Z" fill="white"/>
</svg>
