<svg width="10" height="11" viewBox="0 0 10 11" fill="none" xmlns="http://www.w3.org/2000/svg">
<path fill-rule="evenodd" clip-rule="evenodd" d="M0.853553 9.57455C0.658291 9.76981 0.341709 9.76981 0.146447 9.57455C-0.0488155 9.37929 -0.0488155 9.0627 0.146447 8.86744L3.95956 5.05432L0.146447 1.24121C-0.0488155 1.04594 -0.0488155 0.72936 0.146447 0.534098C0.341709 0.338836 0.658291 0.338836 0.853553 0.534098L4.66667 4.34722L8.86744 0.146447C9.0627 -0.0488154 9.37928 -0.0488156 9.57455 0.146447C9.76981 0.341709 9.76981 0.658291 9.57455 0.853553L5.37378 5.05432L9.57455 9.25509C9.76981 9.45035 9.76981 9.76694 9.57455 9.9622C9.37928 10.1575 9.0627 10.1575 8.86744 9.9622L4.66667 5.76143L0.853553 9.57455Z" fill="white"/>
</svg>
