<svg width="116" height="105" viewBox="0 0 116 105" fill="none" xmlns="http://www.w3.org/2000/svg">
<g filter="url(#filter0_d_373_123)">
<path d="M69.3289 14H28.5235L10 47.4302L28.5235 83H72.0134L90 47.4302L69.3289 14Z" fill="#FEC901"/>
</g>
<path d="M67.1596 47.3787H63.1739H62.6407C61.4625 47.3787 60.5068 48.3343 60.5068 49.5165V49.7483C60.5068 50.9317 61.4625 51.8879 62.6424 51.8879H66.6321H67.1596C68.3401 51.8879 69.2986 50.9277 69.2986 49.7483L69.2963 49.5137C69.2986 48.3343 68.3401 47.3787 67.1596 47.3787Z" fill="black"/>
<path d="M67.1617 42.0452H66.2203V31.7024C66.2203 30.2159 65.0044 29 63.5173 29H45.6843C44.1978 29 42.9819 30.2165 42.9819 31.7024V39.123C39.3849 41.1564 35.6749 43.2806 35.6669 43.2857C33.6529 44.1146 30.7021 46.7891 30.7021 53.1045C30.7021 53.6685 30.7393 54.1891 30.7912 54.692C30.8078 54.8393 30.826 54.9809 30.846 55.123C30.898 55.4924 30.963 55.8457 31.0407 56.1814C31.0686 56.3013 31.0903 56.4263 31.1206 56.541C31.2251 56.9292 31.3461 57.2934 31.4819 57.6399C31.5504 57.8118 31.6247 57.9682 31.6994 58.1292C31.7794 58.2987 31.8598 58.4654 31.946 58.6212C32.0459 58.8091 32.1458 58.99 32.2555 59.1618C32.2817 59.2018 32.3103 59.2383 32.3371 59.2789C34.9379 63.2104 39.736 63.2281 39.736 63.2281H42.9819V66.2987C42.9819 67.7835 44.1978 68.9994 45.6843 68.9994H63.5168C65.0038 68.9994 66.2198 67.7829 66.2198 66.2987V62.5533H66.6319V62.551H67.1577C68.3399 62.551 69.2984 61.5948 69.2961 60.4126L69.2984 60.1797C69.2961 58.9991 68.3399 58.0458 67.1594 58.0458H66.6319H63.1731H62.6399C61.4594 58.0458 60.5061 59.0014 60.5061 60.1814V60.4183C60.5061 61.5954 61.4617 62.555 62.6416 62.555H64.3394V64.0016H44.8617V44.5975C45.8402 43.977 46.7461 43.3799 47.2627 42.9797C49.8801 40.9555 52.3645 39.3434 52.7007 37.8814C53.1386 35.9844 51.6823 34.386 49.1563 35.6984C48.3605 36.1117 46.7273 37.0177 44.8617 38.0652V33.2826L64.3394 33.2854V42.0441H63.1731V42.0464H62.6428C61.4617 42.0464 60.5032 43.002 60.5032 44.1854V44.4172C60.5032 45.6 61.4617 46.5533 62.6399 46.5533H63.1703H66.6291H67.1605C68.3399 46.5533 69.2961 45.5977 69.2961 44.4172V44.1791C69.2984 43.0037 68.3428 42.0452 67.1617 42.0452ZM54.5983 64.9503C55.3472 64.9503 55.9512 65.5549 55.9512 66.3021C55.9512 67.0511 55.3466 67.6534 54.5983 67.6534C53.8521 67.6534 53.2493 67.0494 53.2493 66.3021C53.2505 65.5572 53.855 64.9503 54.5983 64.9503ZM57.4543 31.602H51.748C51.5687 31.602 51.4203 31.4564 51.4203 31.2766C51.4203 31.0939 51.5687 30.9483 51.748 30.9483H57.4543C57.6335 30.9483 57.7796 31.0933 57.7796 31.2766C57.7796 31.4558 57.6335 31.602 57.4543 31.602Z" fill="black"/>
<path d="M67.1595 52.7124H66.6321H62.6406C61.4624 52.7124 60.5039 53.6709 60.5039 54.8508V55.0849C60.5039 56.266 61.4601 57.2216 62.6406 57.2216H63.171H66.6298H67.1584C68.3406 57.2216 69.294 56.266 69.2968 55.0849V54.8508C69.2963 53.6709 68.3429 52.7124 67.1595 52.7124Z" fill="black"/>
<defs>
<filter id="filter0_d_373_123" x="0" y="0" width="116" height="105" filterUnits="userSpaceOnUse" color-interpolation-filters="sRGB">
<feFlood flood-opacity="0" result="BackgroundImageFix"/>
<feColorMatrix in="SourceAlpha" type="matrix" values="0 0 0 0 0 0 0 0 0 0 0 0 0 0 0 0 0 0 127 0" result="hardAlpha"/>
<feOffset dx="8" dy="4"/>
<feGaussianBlur stdDeviation="9"/>
<feColorMatrix type="matrix" values="0 0 0 0 0.171129 0 0 0 0 0.171129 0 0 0 0 0.171129 0 0 0 0.15 0"/>
<feBlend mode="normal" in2="BackgroundImageFix" result="effect1_dropShadow_373_123"/>
<feBlend mode="normal" in="SourceGraphic" in2="effect1_dropShadow_373_123" result="shape"/>
</filter>
</defs>
</svg>
