<svg width="116" height="105" viewBox="0 0 116 105" fill="none" xmlns="http://www.w3.org/2000/svg">
<g filter="url(#filter0_d_373_155)">
<path d="M69.3289 14H28.5235L10 47.4302L28.5235 83H72.0134L90 47.4302L69.3289 14Z" fill="#FEC901"/>
</g>
<path d="M49.9994 37.9998C52.7608 37.9998 54.9993 35.7613 54.9993 32.9999C54.9993 30.2385 52.7608 28 49.9994 28C47.238 28 44.9995 30.2385 44.9995 32.9999C44.9995 35.7613 47.238 37.9998 49.9994 37.9998Z" fill="black"/>
<path d="M59.7175 64.3828L53.5601 66.692L56.6221 67.8403C57.9399 68.3296 59.3618 67.6517 59.841 66.3768C60.0961 65.6966 60.0206 64.9841 59.7175 64.3828Z" fill="black"/>
<path d="M38.3781 55.6582C37.0879 55.1797 35.645 55.8291 35.1592 57.1217C34.6746 58.4144 35.3301 59.8548 36.6227 60.3406L39.3198 61.3519L46.4403 58.6814L38.3781 55.6582Z" fill="black"/>
<path d="M64.8408 57.1218C64.3549 55.829 62.9121 55.1797 61.6219 55.6583L41.6223 63.1581C40.3296 63.6439 39.6741 65.0843 40.1587 66.377C40.6379 67.6514 42.0594 68.33 43.3776 67.8405L63.3772 60.3407C64.67 59.8549 65.3255 58.4145 64.8408 57.1218Z" fill="black"/>
<path d="M67.4996 47.9995H61.5452L57.2362 39.3815C56.7884 38.4868 55.8775 37.977 54.9386 37.9998H50H45.0611C44.1224 37.977 43.2127 38.4869 42.7638 39.3815L38.4548 47.9995H32.5004C31.1199 47.9995 30.0005 49.1189 30.0005 50.4994C30.0005 51.88 31.1199 52.9993 32.5004 52.9993H40.0002C40.9475 52.9993 41.813 52.4647 42.2365 51.6175L45.0001 46.0904V55.4716L49.9998 57.3464L54.9999 55.4711V46.0904L57.7635 51.6175C58.1871 52.4647 59.0525 52.9993 59.9997 52.9993H67.4996C68.8801 52.9993 69.9995 51.88 69.9995 50.4994C69.9995 49.1189 68.8802 47.9995 67.4996 47.9995Z" fill="black"/>
<defs>
<filter id="filter0_d_373_155" x="0" y="0" width="116" height="105" filterUnits="userSpaceOnUse" color-interpolation-filters="sRGB">
<feFlood flood-opacity="0" result="BackgroundImageFix"/>
<feColorMatrix in="SourceAlpha" type="matrix" values="0 0 0 0 0 0 0 0 0 0 0 0 0 0 0 0 0 0 127 0" result="hardAlpha"/>
<feOffset dx="8" dy="4"/>
<feGaussianBlur stdDeviation="9"/>
<feColorMatrix type="matrix" values="0 0 0 0 0.171129 0 0 0 0 0.171129 0 0 0 0 0.171129 0 0 0 0.15 0"/>
<feBlend mode="normal" in2="BackgroundImageFix" result="effect1_dropShadow_373_155"/>
<feBlend mode="normal" in="SourceGraphic" in2="effect1_dropShadow_373_155" result="shape"/>
</filter>
</defs>
</svg>
