<svg width="116" height="105" viewBox="0 0 116 105" fill="none" xmlns="http://www.w3.org/2000/svg">
<g filter="url(#filter0_d_373_143)">
<path d="M69.3289 14H28.5235L10 47.4302L28.5235 83H72.0134L90 47.4302L69.3289 14Z" fill="#FEC901"/>
</g>
<g clip-path="url(#clip0_373_143)">
<path d="M38.7523 30.2448C38.7523 29.5573 38.195 29 37.5075 29C36.82 29 36.2627 29.5573 36.2627 30.2448V31.6556H38.7523V30.2448Z" fill="black"/>
<path d="M48.7167 30.2448C48.7167 29.5573 48.1593 29 47.4719 29C46.7844 29 46.2271 29.5573 46.2271 30.2448V31.6556H48.7167V30.2448Z" fill="black"/>
<path d="M58.6669 30.2448C58.6669 29.5573 58.1095 29 57.4221 29C56.7346 29 56.1772 29.5573 56.1772 30.2448V31.6556H58.6669V30.2448Z" fill="black"/>
<path d="M63.6523 32.9003C63.6523 32.2129 63.0949 31.6555 62.4074 31.6555H58.667V34.3061C58.667 34.9935 58.1097 35.5509 57.4222 35.5509C56.7347 35.5509 56.1774 34.9935 56.1774 34.3061V31.6555H48.7168V34.3061C48.7168 34.9935 48.1595 35.5509 47.472 35.5509C46.7845 35.5509 46.2272 34.9935 46.2272 34.3061V31.6555H38.7522V34.3061C38.7522 34.9935 38.1948 35.5509 37.5074 35.5509C36.8199 35.5509 36.2625 34.9935 36.2625 34.3061V31.6555H32.5319C31.8445 31.6555 31.2871 32.2129 31.2871 32.9003V39.8713H63.6523V32.9003Z" fill="black"/>
<path d="M49.4074 63.9387L46.2182 63.937C45.5303 63.9362 44.9734 63.3785 44.9742 62.6914C44.9742 62.0066 45.5293 61.4474 46.2199 61.4474L48.8556 61.4482C48.7726 60.653 48.7737 59.8071 48.8738 58.9586H46.2191C45.5311 58.9586 44.9742 58.4009 44.9742 57.7138C44.9742 57.0266 45.5311 56.469 46.2191 56.469H49.4664C51.546 50.7443 57.8602 47.6885 63.6523 49.6947V42.3611H31.2871V67.6723C31.2871 68.3594 31.8448 68.9171 32.5319 68.9171H52.863C51.2947 67.6175 50.0854 65.9013 49.4074 63.9387ZM53.6879 46.5105H56.1859C56.873 46.5105 57.4307 47.0681 57.4307 47.7553C57.4307 48.4424 56.873 49.0001 56.1859 49.0001H53.6879C53 49.0001 52.4431 48.4424 52.4431 47.7553C52.4431 47.0681 53 46.5105 53.6879 46.5105ZM46.2191 46.5105H48.717C49.4041 46.5105 49.9618 47.0681 49.9618 47.7553C49.9618 48.4424 49.4041 49.0001 48.717 49.0001H46.2191C45.5311 49.0001 44.9742 48.4424 44.9742 47.7553C44.9742 47.0681 45.5311 46.5105 46.2191 46.5105ZM46.2191 51.4897H48.717C49.4041 51.4897 49.9618 52.0474 49.9618 52.7345C49.9618 53.4217 49.4041 53.9793 48.717 53.9793H46.2191C45.5311 53.9793 44.9742 53.4217 44.9742 52.7345C44.9742 52.0474 45.5311 51.4897 46.2191 51.4897ZM41.2482 63.9329C41.2474 63.9329 41.2474 63.9329 41.2474 63.9329L38.7494 63.9304C38.0615 63.9304 37.5046 63.3727 37.5054 62.6847C37.5054 61.9976 38.0631 61.4408 38.7503 61.4408H38.7511L41.249 61.4432C41.9362 61.4441 42.493 62.0017 42.493 62.6889C42.4921 63.376 41.9353 63.9329 41.2482 63.9329ZM41.2482 58.9586H38.7503C38.0623 58.9586 37.5054 58.4009 37.5054 57.7138C37.5054 57.0266 38.0623 56.469 38.7503 56.469H41.2482C41.9353 56.469 42.493 57.0266 42.493 57.7138C42.493 58.4009 41.9353 58.9586 41.2482 58.9586ZM41.2482 53.9793H38.7503C38.0623 53.9793 37.5054 53.4217 37.5054 52.7345C37.5054 52.0474 38.0623 51.4897 38.7503 51.4897H41.2482C41.9353 51.4897 42.493 52.0474 42.493 52.7345C42.493 53.4217 41.9353 53.9793 41.2482 53.9793Z" fill="black"/>
<path d="M59.9988 51.5728C55.1941 51.5728 51.2852 55.4817 51.2852 60.2864C51.2852 65.0912 55.1941 69.0001 59.9988 69.0001C64.8036 69.0001 68.7125 65.0912 68.7125 60.2864C68.7125 55.4817 64.8036 51.5728 59.9988 51.5728ZM62.0735 61.0333C62.0735 61.7208 61.5162 62.2781 60.8287 62.2781H57.0154C56.328 62.2781 55.7706 61.7208 55.7706 61.0333C55.7706 60.3459 56.328 59.7885 57.0154 59.7885H59.5839V56.0541C59.5839 55.3666 60.1413 54.8093 60.8287 54.8093C61.5162 54.8093 62.0735 55.3666 62.0735 56.0541V61.0333Z" fill="black"/>
</g>
<defs>
<filter id="filter0_d_373_143" x="0" y="0" width="116" height="105" filterUnits="userSpaceOnUse" color-interpolation-filters="sRGB">
<feFlood flood-opacity="0" result="BackgroundImageFix"/>
<feColorMatrix in="SourceAlpha" type="matrix" values="0 0 0 0 0 0 0 0 0 0 0 0 0 0 0 0 0 0 127 0" result="hardAlpha"/>
<feOffset dx="8" dy="4"/>
<feGaussianBlur stdDeviation="9"/>
<feColorMatrix type="matrix" values="0 0 0 0 0.171129 0 0 0 0 0.171129 0 0 0 0 0.171129 0 0 0 0.15 0"/>
<feBlend mode="normal" in2="BackgroundImageFix" result="effect1_dropShadow_373_143"/>
<feBlend mode="normal" in="SourceGraphic" in2="effect1_dropShadow_373_143" result="shape"/>
</filter>
<clipPath id="clip0_373_143">
<rect width="40" height="40" fill="white" transform="translate(30 29)"/>
</clipPath>
</defs>
</svg>
