<svg width="116" height="105" viewBox="0 0 116 105" fill="none" xmlns="http://www.w3.org/2000/svg">
<g filter="url(#filter0_d_373_133)">
<path d="M69.3289 14H28.5235L10 47.4302L28.5235 83H72.0134L90 47.4302L69.3289 14Z" fill="#FEC901"/>
</g>
<g clip-path="url(#clip0_373_133)">
<path d="M62.3889 43.7423V44.4201C62.774 44.39 63.7297 44.4091 64.7424 44.6962V43.7423C64.7424 35.6133 58.1291 29 50.0001 29C41.8711 29 35.2578 35.6133 35.2578 43.7423V44.6962C36.1046 44.4562 37.0562 44.3766 37.6113 44.4201V43.7423C37.6113 36.9117 43.1687 31.3535 50.0001 31.3535C56.8315 31.3535 62.3889 36.9117 62.3889 43.7423Z" fill="black"/>
<path d="M62.3889 59.5993C62.3889 62.8765 59.832 65.1034 57.0081 65.1034H54.2657C53.8269 64.1907 52.8937 63.5607 51.8132 63.5607H48.187C46.6849 63.5607 45.4673 64.7783 45.4673 66.2803C45.4673 67.7824 46.6849 69 48.187 69H51.8132C52.8938 69 53.8271 68.3698 54.2659 67.4569H57.0081C60.9646 67.4569 64.7424 64.4321 64.7424 59.3193C63.8103 59.5868 62.8709 59.6392 62.3889 59.5993Z" fill="black"/>
<path d="M37.3372 46.7642C34.3201 46.7642 31.9371 49.2886 32.0991 52.3019C32.245 55.0264 34.4997 57.2027 37.2313 57.256C38.0295 57.276 38.5116 56.6941 38.5116 56.0761V47.9449C38.5117 47.3161 38.0181 46.7642 37.3372 46.7642Z" fill="black"/>
<path d="M62.643 46.7642C61.9971 46.77 61.4883 47.3016 61.4883 47.9448V56.0762C61.4883 56.6888 61.9651 57.2766 62.7678 57.2561C65.4796 57.2042 67.7544 55.0446 67.9008 52.302C68.0604 49.3337 65.7349 46.7642 62.643 46.7642Z" fill="black"/>
<path d="M55.5079 52.251C56.7566 51.0023 56.7566 48.9777 55.5079 47.729C54.2592 46.4803 52.2345 46.4803 50.9858 47.729L49.9998 48.715L49.0138 47.729C47.765 46.4803 45.7404 46.4803 44.4917 47.729C43.243 48.9777 43.243 51.0023 44.4917 52.251L49.445 57.2044C49.7514 57.5107 50.2481 57.5107 50.5545 57.2044L55.5079 52.251Z" fill="black"/>
</g>
<defs>
<filter id="filter0_d_373_133" x="0" y="0" width="116" height="105" filterUnits="userSpaceOnUse" color-interpolation-filters="sRGB">
<feFlood flood-opacity="0" result="BackgroundImageFix"/>
<feColorMatrix in="SourceAlpha" type="matrix" values="0 0 0 0 0 0 0 0 0 0 0 0 0 0 0 0 0 0 127 0" result="hardAlpha"/>
<feOffset dx="8" dy="4"/>
<feGaussianBlur stdDeviation="9"/>
<feColorMatrix type="matrix" values="0 0 0 0 0.171129 0 0 0 0 0.171129 0 0 0 0 0.171129 0 0 0 0.15 0"/>
<feBlend mode="normal" in2="BackgroundImageFix" result="effect1_dropShadow_373_133"/>
<feBlend mode="normal" in="SourceGraphic" in2="effect1_dropShadow_373_133" result="shape"/>
</filter>
<clipPath id="clip0_373_133">
<rect width="40" height="40" fill="white" transform="translate(30 29)"/>
</clipPath>
</defs>
</svg>
