<svg width="40" height="40" viewBox="0 0 40 40" fill="none" xmlns="http://www.w3.org/2000/svg">
<g clip-path="url(#clip0_40_74)">
<path d="M28.1459 7.55794C24.5101 3.21043 20.9212 0.384742 20.7704 0.266777C19.9511 -0.374061 18.7501 0.211545 18.7501 1.25112V6.74781C18.7501 9.58615 14.9939 10.585 13.5862 8.11808C13.1485 7.35295 12.0842 7.27233 11.5332 7.94543C7.75042 12.5618 4.37561 18.3825 4.37561 24.3754C4.37561 32.9907 11.3848 39.9998 20.0001 39.9998C28.6154 39.9998 35.6246 32.9907 35.6246 24.3754C35.6246 18.2274 32.0748 12.2564 28.1459 7.55794ZM13.1253 20.0005C13.1253 18.6216 14.2472 17.5006 15.6252 17.5006C17.0033 17.5006 18.1252 18.6216 18.1252 20.0005C18.1252 21.3794 17.0033 22.5004 15.6252 22.5004C14.2472 22.5004 13.1253 21.3794 13.1253 20.0005ZM16.6119 30.7673C16.1904 31.3107 15.4048 31.4118 14.8581 30.9868C14.3128 30.5626 14.2151 29.7775 14.6386 29.233L23.3883 17.9834C23.8125 17.4381 24.5976 17.3404 25.1421 17.7638C25.6874 18.1881 25.7851 18.9732 25.3616 19.5177L16.6119 30.7673ZM24.3749 31.2501C22.9969 31.2501 21.875 30.1291 21.875 28.7502C21.875 27.3713 22.9969 26.2503 24.3749 26.2503C25.753 26.2503 26.8749 27.3713 26.8749 28.7502C26.8749 30.1291 25.753 31.2501 24.3749 31.2501Z" fill="black"/>
</g>
<defs>
<clipPath id="clip0_40_74">
<rect width="40" height="40" fill="white"/>
</clipPath>
</defs>
</svg>
