<svg width="40" height="40" viewBox="0 0 40 40" fill="none" xmlns="http://www.w3.org/2000/svg">
<path d="M19.1918 25.1423C18.9713 26.2808 19.8481 27.3274 20.9936 27.3274H21.2203V36.9769C21.2203 37.4601 20.8286 37.8517 20.3455 37.8517H19.1957C19.1957 37.8408 19.1964 37.8301 19.1964 37.8191C19.1964 37.5287 19.1598 37.2466 19.0914 36.9769C18.715 35.4942 17.3694 34.3941 15.7714 34.3941C14.1733 34.3941 12.8277 35.4944 12.4514 36.9769C12.3829 37.2464 12.3463 37.5285 12.3463 37.8191C12.3463 37.8301 12.347 37.8408 12.3471 37.8517H8.69866C8.69873 37.8408 8.69944 37.8301 8.69944 37.8191C8.69944 37.5287 8.6628 37.2466 8.59436 36.9769C8.21803 35.4942 6.87241 34.3941 5.27436 34.3941C3.67632 34.3941 2.3307 35.4944 1.95437 36.9769C1.88593 37.2464 1.84929 37.5285 1.84929 37.8191C1.84929 37.8301 1.85 37.8408 1.85007 37.8517H0.874764C0.39164 37.8517 0 37.4601 0 36.9769V36.1022V34.9568C0 34.1727 0.635624 33.5373 1.41961 33.5373H2.3582C2.30546 33.461 2.26789 33.373 2.25062 33.2769H7.72608C7.70889 33.373 7.67124 33.4611 7.6185 33.5373H10.3712V21.1181C10.3712 20.5122 10.8623 20.021 11.4683 20.021H14.3426L10.5595 7.76583C10.417 7.30427 10.6756 6.81451 11.1372 6.67201C11.5988 6.52958 12.0886 6.7881 12.2311 7.24974L16.1735 20.021C16.1735 20.021 20.1015 20.056 20.1814 20.0332L19.1918 25.1423Z" fill="#161616"/>
<path d="M15.7713 35.5574C14.5706 35.5574 13.5973 36.5308 13.5973 37.7314C13.5973 38.932 14.5706 39.9054 15.7713 39.9054C16.972 39.9054 17.9453 38.932 17.9453 37.7314C17.9453 36.5308 16.972 35.5574 15.7713 35.5574ZM15.7713 38.506C15.3436 38.506 14.9969 38.1592 14.9969 37.7316C14.9969 37.3039 15.3436 36.9572 15.7713 36.9572C16.199 36.9572 16.5456 37.3039 16.5456 37.7316C16.5457 38.1592 16.1989 38.506 15.7713 38.506Z" fill="#161616"/>
<path d="M5.27444 35.5574C4.07374 35.5574 3.10046 36.5308 3.10046 37.7314C3.10046 38.932 4.07382 39.9054 5.27444 39.9054C6.47507 39.9054 7.44843 38.932 7.44843 37.7314C7.44843 36.5308 6.47507 35.5574 5.27444 35.5574ZM5.27444 38.506C4.84679 38.506 4.50007 38.1592 4.50007 37.7316C4.50007 37.3039 4.84679 36.9572 5.27444 36.9572C5.70218 36.9572 6.04882 37.3039 6.04882 37.7316C6.04882 38.1592 5.7021 38.506 5.27444 38.506Z" fill="#161616"/>
<path d="M38.6135 35.2574V33.4198L36.7824 33C34.9953 33.7511 33.3227 34.6835 33.0351 36.3376C32.9383 36.8987 33.041 37.2932 33.352 37.5464C33.6954 37.8249 34.3204 37.9346 35.0306 37.9768C34.6721 37.7304 34.4187 37.4158 34.2999 37.0696C33.9712 36.0992 34.8134 35.1793 34.8486 35.1414C34.9013 35.0708 35.0049 35.0277 35.1162 35.0302C35.2275 35.0327 35.3273 35.0802 35.3738 35.1529C35.4203 35.2257 35.4056 35.3111 35.3357 35.3734C35.3299 35.3819 34.6021 36.1835 34.8692 36.9726C35.048 37.4188 35.4777 37.7912 36.0547 38H37.3165C36.8118 37.7194 36.266 37.2342 36.266 36.3122C36.266 34.7658 37.1932 34.0823 37.2314 34.0527C37.3465 33.97 37.533 33.97 37.6481 34.0527C37.7632 34.1355 37.7632 34.2696 37.6481 34.3523C37.6393 34.3565 36.8529 34.9536 36.8529 36.3122C36.8529 37.3671 37.6422 37.6814 38.1646 37.8882C38.2643 37.9283 38.3436 37.9641 38.4169 38H39.7081C39.8185 37.9996 39.9192 37.9547 39.9688 37.8837C40.0183 37.8128 40.0083 37.7278 39.9428 37.6639C39.3354 37.069 38.6135 36.1705 38.6135 35.2574Z" fill="#161616"/>
<path d="M26.3709 6.59286C28.1695 6.59286 29.6275 5.13481 29.6275 3.33622C29.6275 1.53763 28.1695 0.0795898 26.3709 0.0795898C24.5723 0.0795898 23.1143 1.53763 23.1143 3.33622C23.1143 5.13481 24.5723 6.59286 26.3709 6.59286Z" fill="#161616"/>
<path d="M23.9292 7.63135C24.199 8.39252 24.9914 10.6285 25.2933 11.4803C26.1157 11.4803 26.6703 11.4803 27.4059 11.4803C27.709 10.6252 28.5066 8.37447 28.7699 7.63135C26.7825 7.63135 26.056 7.63135 23.9292 7.63135Z" fill="#161616"/>
<path d="M25.2784 16.3706C21.533 14.5517 22.5352 15.0454 21.418 14.4775L23.1894 11.5799L22.5187 13.9088L23.7408 14.5022L24.0805 11.7247C23.4626 9.98074 23.3895 9.77472 22.678 7.76715C22.0112 7.96832 21.5419 8.37215 21.1824 8.82676C20.7619 9.35871 17.8842 14.1268 17.7901 14.273C17.2791 15.0675 17.5822 16.1272 18.4244 16.5362L23.9055 19.1978C24.6863 19.577 25.6265 19.2513 26.0056 18.4706C26.3847 17.6899 26.0591 16.7497 25.2784 16.3706Z" fill="#161616"/>
<path d="M4.52938 20.0587C4.52938 19.409 5.10878 18.8822 5.8235 18.8822C6.53822 18.8822 7.11762 19.409 7.11762 20.0587V22.1558C7.15644 22.2175 7.19203 22.2822 7.22438 22.3469C7.39059 22.2527 7.57334 22.1851 7.76468 22.1469V20.0587C7.76468 19.0841 6.89558 18.294 5.8235 18.294C4.75142 18.294 3.88232 19.0841 3.88232 20.0587V21.1117C4.08978 21.0353 4.3073 20.9839 4.52938 20.9587V20.0587Z" fill="#161616"/>
<path d="M7.76465 23.5882H9.05876C9.05716 23.1015 8.62355 22.7073 8.08818 22.7058C7.97772 22.7057 7.86814 22.7236 7.76465 22.7588V23.5882Z" fill="#161616"/>
<path d="M7.76465 24.1765V25.353H10.0294C10.208 25.353 10.3529 25.2213 10.3529 25.0589V24.4706C10.3529 24.3082 10.208 24.1765 10.0294 24.1765H7.76465Z" fill="#161616"/>
<path d="M5.82349 24.1765H7.1176V25.353H5.82349V24.1765Z" fill="#161616"/>
<path d="M1.29412 24.1765H0.323529C0.144849 24.1765 0 24.3081 0 24.4706V25.0588C0 25.2212 0.144849 25.3529 0.323529 25.3529H1.29412V24.1765Z" fill="#161616"/>
<path d="M0.970581 22.9999C0.971743 23.2182 1.06295 23.4281 1.22617 23.5882H1.29411V23.294C1.29411 23.1316 1.43896 22.9999 1.61764 22.9999C1.79632 22.9999 1.94117 23.1316 1.94117 23.294V27.7058C1.94117 27.8682 2.08602 27.9999 2.2647 27.9999C2.34898 28.0012 2.42999 27.9703 2.48793 27.9146C2.55252 27.8612 2.589 27.7852 2.58823 27.7058V26.8234C2.58983 26.3367 3.02344 25.9425 3.55882 25.9411C4.09486 25.9411 4.52941 26.3361 4.52941 26.8234V28.8823C4.52941 29.0447 4.67425 29.1764 4.85293 29.1764C4.93722 29.1777 5.01823 29.1468 5.07617 29.0911C5.14076 29.0376 5.17723 28.9617 5.17646 28.8823V23.294C5.17646 23.1316 5.32131 22.9999 5.49999 22.9999C5.67867 22.9999 5.82352 23.1316 5.82352 23.294V23.5882H7.11764V23.1587C6.94753 23.185 6.78539 23.0832 6.75205 22.9293C6.56178 22.1137 5.77008 21.5301 4.85293 21.5293C4.75756 21.5288 4.66231 21.5356 4.56823 21.5499C3.99459 21.6251 3.48915 21.9322 3.19323 22.3852C3.13762 22.4652 3.04447 22.5173 2.94088 22.5264C2.8381 22.5333 2.73763 22.4964 2.66911 22.4264C2.48817 22.2312 2.22195 22.1183 1.94117 22.1176C1.40579 22.119 0.97218 22.5132 0.970581 22.9999Z" fill="#161616"/>
<path d="M7.76791 31.7882C7.92109 30.616 8.4835 29.5192 9.37262 28.6588L9.67026 25.9412H7.76468V26.5823C8.21035 26.7256 8.47769 27.1399 8.39776 27.5634C8.31782 27.987 7.91386 28.2966 7.44115 28.2966C6.96843 28.2966 6.56447 27.987 6.48454 27.5634C6.4046 27.1399 6.67194 26.7256 7.11762 26.5823V25.9412H5.8235V28.8823C5.8235 29.3696 5.38895 29.7647 4.85291 29.7647C4.31753 29.7632 3.88392 29.369 3.88232 28.8823V26.8235C3.88377 26.7469 3.84973 26.6732 3.7885 26.6206C3.72968 26.5619 3.64614 26.5287 3.55879 26.5294C3.38011 26.5294 3.23526 26.6611 3.23526 26.8235V27.7059C3.23526 28.1932 2.80072 28.5882 2.26468 28.5882C1.7293 28.5868 1.29569 28.1926 1.29409 27.7059V25.9412H0.682617L1.49791 33.3823C1.54782 33.8338 1.96618 34.1772 2.46526 34.1765H7.88762C8.06782 34.1745 8.2438 34.1266 8.39556 34.0382C8.35673 34.0029 8.31144 33.9706 8.27262 33.9323C7.80026 33.447 7.63526 32.7441 7.76791 31.7882ZM4.85291 32.1176C4.31687 32.1176 3.88232 31.7226 3.88232 31.2353C3.88232 30.748 4.31687 30.3529 4.85291 30.3529C5.38895 30.3529 5.8235 30.748 5.8235 31.2353C5.8219 31.722 5.38829 32.1162 4.85291 32.1176Z" fill="#161616"/>
<path d="M1.29407 20.647C1.83012 20.647 2.26466 20.252 2.26466 19.7647C2.26466 19.2774 1.83012 18.8823 1.29407 18.8823C0.758034 18.8823 0.323486 19.2774 0.323486 19.7647C0.323486 20.252 0.758034 20.647 1.29407 20.647ZM1.29407 19.4706C1.47276 19.4706 1.6176 19.6022 1.6176 19.7647C1.6176 19.9271 1.47276 20.0588 1.29407 20.0588C1.11539 20.0588 0.970545 19.9271 0.970545 19.7647C0.970545 19.6022 1.11539 19.4706 1.29407 19.4706Z" fill="#161616"/>
<path d="M10.0294 21.2352C10.5655 21.2352 11 20.8401 11 20.3528C11 19.8655 10.5655 19.4705 10.0294 19.4705C9.49339 19.4705 9.05884 19.8655 9.05884 20.3528C9.05884 20.8401 9.49339 21.2352 10.0294 21.2352ZM10.0294 20.0587C10.2081 20.0587 10.353 20.1904 10.353 20.3528C10.353 20.5152 10.2081 20.6469 10.0294 20.6469C9.85075 20.6469 9.7059 20.5152 9.7059 20.3528C9.7059 20.1904 9.85075 20.0587 10.0294 20.0587Z" fill="#161616"/>
<path d="M8.73527 18.5882C8.91395 18.5882 9.0588 18.4566 9.0588 18.2941C9.0588 18.1317 8.91395 18 8.73527 18C8.55659 18 8.41174 18.1317 8.41174 18.2941C8.41174 18.4566 8.55659 18.5882 8.73527 18.5882Z" fill="#161616"/>
<path d="M3.23527 18.5882C3.41395 18.5882 3.5588 18.4566 3.5588 18.2941C3.5588 18.1317 3.41395 18 3.23527 18C3.05659 18 2.91174 18.1317 2.91174 18.2941C2.91174 18.4566 3.05659 18.5882 3.23527 18.5882Z" fill="#161616"/>
<path fill-rule="evenodd" clip-rule="evenodd" d="M39.9955 34.6397C39.994 33.221 39.0276 32.0292 37.718 31.6831L37.7152 29H36.141L36.1438 31.6847C34.8349 32.0335 33.8712 33.2274 33.8727 34.6459L33.8729 34.8785L39.9961 34.8732L39.9955 34.6397ZM36.14 28L36.1276 16.1482L33.5765 17.2109C32.7385 17.56 31.7933 17.1252 31.4936 16.2924C31.1974 15.4693 30.5411 13.872 30.3782 13.4758L30.3467 13.399L32.6062 25.3252C32.7107 25.8651 32.297 26.3652 31.7491 26.3652H30.5499V38.0266C30.5499 39.0681 29.7056 39.9124 28.6641 39.9124C27.6167 39.9124 26.7784 39.0602 26.7784 38.0266V26.3652H25.9642V38.0266C25.9642 39.068 25.1199 39.9123 24.0784 39.9123C23.0369 39.9123 22.1926 39.068 22.1926 38.0266V26.3651H20.9935C20.4484 26.3651 20.0317 25.8656 20.1364 25.3251L21.3467 19.0768L22.8391 19.8015L22.4981 21.7858C22.417 22.2581 22.7828 22.688 23.2577 22.688C24.893 22.688 26.1691 22.6904 27.3934 22.6928C28.0732 22.6941 28.737 22.6954 29.4373 22.6962C29.6783 22.6964 29.9074 22.5902 30.064 22.4069C30.2206 22.2236 30.2891 21.9811 30.2514 21.7431L28.6507 11.6341L30.0254 7.75489C31.2336 8.09192 32.1402 9.12137 32.7269 10.8288C32.9387 11.4453 33.1892 12.0512 33.4694 12.7293C33.5944 13.0318 33.7254 13.3487 33.8615 13.6873L36.1237 12.745L36.1167 5.99997H37.6912L37.6978 12.2888C38.2573 12.342 38.7701 12.6939 39.0012 13.2489C39.3349 14.0501 38.956 14.97 38.1548 15.3038L37.7011 15.4928L37.7141 28H36.14ZM37.6876 2.5681L37.6902 4.99997H36.1156L36.1131 2.56966C36.1126 2.1349 36.4648 1.78208 36.8996 1.78162H36.9004C37.3348 1.78162 37.6872 2.13349 37.6876 2.5681Z" fill="#161616"/>
</svg>
