<svg width="40" height="40" viewBox="0 0 40 40" fill="none" xmlns="http://www.w3.org/2000/svg">
<g clip-path="url(#clip0_40_120)">
<path d="M16.7857 24.2857C17.1802 24.2857 17.5 23.966 17.5 23.5715C17.5 23.177 17.1802 22.8572 16.7857 22.8572C16.3912 22.8572 16.0714 23.177 16.0714 23.5715C16.0714 23.966 16.3912 24.2857 16.7857 24.2857Z" fill="#161616"/>
<path d="M11.0715 33.5714C11.466 33.5714 11.7857 33.2516 11.7857 32.8571C11.7857 32.4626 11.466 32.1428 11.0715 32.1428C10.677 32.1428 10.3572 32.4626 10.3572 32.8571C10.3572 33.2516 10.677 33.5714 11.0715 33.5714Z" fill="#161616"/>
<path d="M32.5001 30.7143V24.4928L28.043 23.0714C23.693 25.6143 19.6215 28.7714 18.9215 34.3714C18.6858 36.2714 18.9358 37.6071 19.693 38.4643C20.5287 39.4071 22.0501 39.7786 23.7787 39.9214C22.9063 39.0872 22.2894 38.0219 22.0001 36.85C21.2001 33.5643 23.2501 30.45 23.3358 30.3214C23.464 30.0826 23.7162 29.9368 23.9872 29.9451C24.2581 29.9534 24.501 30.1144 24.6142 30.3606C24.7275 30.6069 24.6916 30.896 24.5215 31.1071C24.5073 31.1357 22.7358 33.85 23.3858 36.5214C23.8211 38.0323 24.867 39.2932 26.2715 40H29.343C28.1144 39.05 26.7858 37.4071 26.7858 34.2857C26.7858 29.05 29.043 26.7357 29.1358 26.6357C29.4159 26.3556 29.87 26.3556 30.1501 26.6357C30.4302 26.9158 30.4302 27.3699 30.1501 27.65C30.1287 27.6643 28.2144 29.6857 28.2144 34.2857C28.2144 37.8571 30.1358 38.9214 31.4073 39.6214C31.6501 39.7571 31.843 39.8786 32.0215 40H35.1644C35.4332 39.9986 35.6784 39.8464 35.799 39.6063C35.9196 39.3661 35.8952 39.0785 35.7358 38.8621C34.2573 36.8478 32.5001 33.8057 32.5001 30.7143V30.7143Z" fill="#161616"/>
<path d="M28.895 21.8458L32.9771 23.1472C33.3527 23.2669 33.7542 23.0598 33.8743 22.6844V22.6808C33.9319 22.5003 33.9155 22.3042 33.8285 22.1358C33.7416 21.9674 33.5913 21.8405 33.4107 21.783L29.3286 20.4815C28.953 20.3619 28.5516 20.569 28.4314 20.9444V20.948C28.3738 21.1285 28.3902 21.3245 28.4772 21.4929C28.5641 21.6613 28.7144 21.7883 28.895 21.8458V21.8458Z" fill="#161616"/>
<path d="M38.9285 0.77135C38.752 0.436308 38.4524 0.182806 38.0928 0.0642072C37.3398 -0.170983 36.5376 0.242842 36.2928 0.992779L30.6592 18.6556C30.5391 19.0314 30.7463 19.4334 31.1221 19.5535L32.4835 19.9892C32.6641 20.0469 32.8601 20.0304 33.0285 19.9435C33.1969 19.8565 33.3238 19.7062 33.3814 19.5256L39.0142 1.86421C39.1332 1.50314 39.1023 1.10946 38.9285 0.77135V0.77135Z" fill="#161616"/>
<path d="M10.3572 5.71406C10.3572 4.1361 11.6363 2.85692 13.2143 2.85692C14.7923 2.85692 16.0714 4.1361 16.0714 5.71406V10.8069C16.1572 10.9569 16.2357 11.1141 16.3072 11.2712C16.6741 11.0424 17.0776 10.8781 17.5 10.7855V5.71406C17.5 3.34712 15.5812 1.42834 13.2143 1.42834C10.8474 1.42834 8.92859 3.34712 8.92859 5.71406V8.2712C9.38661 8.08583 9.86685 7.96097 10.3572 7.89977V5.71406Z" fill="#161616"/>
<path d="M17.5 14.2855H20.3571C20.3536 13.1035 19.3963 12.1462 18.2143 12.1426C17.9704 12.1424 17.7285 12.1859 17.5 12.2712V14.2855Z" fill="#161616"/>
<path d="M17.5 15.7143V18.5714H22.5C22.8945 18.5714 23.2143 18.2516 23.2143 17.8572V16.4286C23.2143 16.0341 22.8945 15.7143 22.5 15.7143H17.5Z" fill="#161616"/>
<path d="M13.2142 15.7143H16.0714V18.5714H13.2142V15.7143Z" fill="#161616"/>
<path d="M3.21432 15.7143H1.07146C0.676974 15.7143 0.357178 16.0341 0.357178 16.4286V17.8572C0.357178 18.2516 0.676974 18.5714 1.07146 18.5714H3.21432V15.7143Z" fill="#161616"/>
<path d="M2.5 12.8569C2.50257 13.387 2.70393 13.8968 3.06429 14.2855H3.21429V13.5712C3.21429 13.1767 3.53408 12.8569 3.92857 12.8569C4.32306 12.8569 4.64286 13.1767 4.64286 13.5712V24.2855C4.64286 24.68 4.96265 24.9998 5.35714 24.9998C5.54322 25.003 5.72208 24.9278 5.85 24.7926C5.99259 24.6628 6.07312 24.4783 6.07143 24.2855V22.1426C6.07496 20.9606 7.03228 20.0033 8.21429 19.9998C9.39775 19.9998 10.3571 20.9592 10.3571 22.1426V27.1426C10.3571 27.5371 10.6769 27.8569 11.0714 27.8569C11.2575 27.8601 11.4364 27.7849 11.5643 27.6498C11.7069 27.5199 11.7874 27.3355 11.7857 27.1426V13.5712C11.7857 13.1767 12.1055 12.8569 12.5 12.8569C12.8945 12.8569 13.2143 13.1767 13.2143 13.5712V14.2855H16.0714V13.2426C15.6959 13.3063 15.3379 13.0592 15.2643 12.6855C14.8442 10.7047 13.0963 9.28728 11.0714 9.28548C10.8609 9.28409 10.6506 9.30082 10.4429 9.33548C9.17639 9.51816 8.06049 10.2638 7.40714 11.3641C7.28438 11.5583 7.07871 11.6848 6.85 11.7069C6.6231 11.7238 6.40128 11.634 6.25 11.4641C5.85052 10.99 5.26275 10.7157 4.64286 10.7141C3.46086 10.7176 2.50353 11.6749 2.5 12.8569V12.8569Z" fill="#161616"/>
<path d="M17.5072 34.2C17.8454 31.3531 19.0871 28.6895 21.0501 26.6L21.7072 20H17.5001V21.5571C18.4841 21.905 19.0743 22.9112 18.8978 23.9398C18.7213 24.9684 17.8295 25.7203 16.7858 25.7203C15.7422 25.7203 14.8503 24.9684 14.6738 23.9398C14.4973 22.9112 15.0876 21.905 16.0715 21.5571V20H13.2144V27.1429C13.2144 28.3263 12.255 29.2857 11.0715 29.2857C9.88952 29.2822 8.9322 28.3249 8.92867 27.1429V22.1429C8.93187 21.9568 8.8567 21.7779 8.72152 21.65C8.59167 21.5074 8.40723 21.4269 8.21438 21.4286C7.81989 21.4286 7.50009 21.7484 7.50009 22.1429V24.2857C7.50009 25.4692 6.5407 26.4286 5.35724 26.4286C4.17524 26.425 3.21791 25.4677 3.21438 24.2857V20H1.86438L3.66438 38.0714C3.77456 39.1678 4.69823 40.0019 5.80009 40H17.7715C18.1694 39.9952 18.5579 39.8789 18.893 39.6643C18.8072 39.5786 18.7072 39.5 18.6215 39.4072C17.5787 38.2286 17.2144 36.5214 17.5072 34.2V34.2ZM11.0715 35C9.88806 35 8.92867 34.0406 8.92867 32.8571C8.92867 31.6737 9.88806 30.7143 11.0715 30.7143C12.255 30.7143 13.2144 31.6737 13.2144 32.8571C13.2108 34.0392 12.2535 34.9965 11.0715 35V35Z" fill="#161616"/>
<path d="M3.21427 7.14289C4.39774 7.14289 5.35713 6.1835 5.35713 5.00004C5.35713 3.81657 4.39774 2.85718 3.21427 2.85718C2.0308 2.85718 1.07141 3.81657 1.07141 5.00004C1.07141 6.1835 2.0308 7.14289 3.21427 7.14289ZM3.21427 4.28575C3.60876 4.28575 3.92855 4.60555 3.92855 5.00004C3.92855 5.39452 3.60876 5.71432 3.21427 5.71432C2.81978 5.71432 2.49998 5.39452 2.49998 5.00004C2.49998 4.60555 2.81978 4.28575 3.21427 4.28575Z" fill="#161616"/>
<path d="M22.5 8.57124C23.6835 8.57124 24.6429 7.61185 24.6429 6.42838C24.6429 5.24491 23.6835 4.28552 22.5 4.28552C21.3166 4.28552 20.3572 5.24491 20.3572 6.42838C20.3572 7.61185 21.3166 8.57124 22.5 8.57124ZM22.5 5.71409C22.8945 5.71409 23.2143 6.03389 23.2143 6.42838C23.2143 6.82287 22.8945 7.14267 22.5 7.14267C22.1055 7.14267 21.7857 6.82287 21.7857 6.42838C21.7857 6.03389 22.1055 5.71409 22.5 5.71409Z" fill="#161616"/>
<path d="M19.6429 2.14287C20.0374 2.14287 20.3572 1.82307 20.3572 1.42858C20.3572 1.03409 20.0374 0.714294 19.6429 0.714294C19.2484 0.714294 18.9286 1.03409 18.9286 1.42858C18.9286 1.82307 19.2484 2.14287 19.6429 2.14287Z" fill="#161616"/>
<path d="M7.50005 2.14287C7.89454 2.14287 8.21434 1.82307 8.21434 1.42858C8.21434 1.03409 7.89454 0.714294 7.50005 0.714294C7.10556 0.714294 6.78577 1.03409 6.78577 1.42858C6.78577 1.82307 7.10556 2.14287 7.50005 2.14287Z" fill="#161616"/>
</g>
<defs>
<clipPath id="clip0_40_120">
<rect width="40" height="40" fill="white"/>
</clipPath>
</defs>
</svg>
